<?xml version="1.0" encoding="utf-8"?>
<!-- Generator: Adobe Illustrator 15.0.0, SVG Export Plug-In . SVG Version: 6.00 Build 0)  -->
<!DOCTYPE svg PUBLIC "-//W3C//DTD SVG 1.1//EN" "http://www.w3.org/Graphics/SVG/1.1/DTD/svg11.dtd">
<svg version="1.1" id="Layer_1" xmlns="http://www.w3.org/2000/svg" xmlns:xlink="http://www.w3.org/1999/xlink" x="0px" y="0px"
	 width="628.603px" height="105.87px" viewBox="0 0 628.603 105.87" enable-background="new 0 0 628.603 105.87"
	 xml:space="preserve">
<path fill="#CEB9EF" d="M75.719,31.922c3.72-10.708,10.168-19.226,13.501-23.168c3.293,3.896,9.622,12.256,13.361,22.779
	c1.544-1.61,3.131-3.116,4.739-4.526C101.569,12.591,91.926,2.726,91.349,2.145L89.22,0l-2.129,2.145
	C86.51,2.73,76.725,12.742,70.99,27.338C72.597,28.765,74.18,30.294,75.719,31.922z"/>
<g>
	<g>
		<path fill="#A479E2" d="M140.527,15.183l-0.786-3.156l-3.083,1.039c-1.161,0.391-28.581,9.851-41.547,33.537
			c-3.003,5.487-4.936,11.214-6.144,16.793c-1.208-5.579-3.141-11.306-6.144-16.793C69.855,22.916,42.436,13.456,41.275,13.065
			l-3.083-1.039l-0.786,3.156c-0.233,0.937-4.5,18.632,0.034,37.68c2.251,0.354,4.438,0.82,6.578,1.364
			c-3.979-13.987-2.481-27.953-1.448-34.201c7.387,3.168,25.65,12.398,34.989,29.458c6.387,11.668,7.438,33.878,7.044,43.6
			c1.746,2.522,3.208,4.88,4.362,6.897c1.152-2.014,2.61-4.365,4.351-6.881c-0.397-9.712,0.653-31.917,7.056-43.616
			c9.339-17.06,27.603-26.291,34.989-29.458c1.034,6.248,2.531,20.214-1.448,34.201c2.14-0.544,4.327-1.011,6.578-1.364
			C145.026,33.814,140.76,16.119,140.527,15.183z"/>
	</g>
</g>
<path fill="#8454D1" d="M174.657,57.4c-0.37-0.104-9.19-2.525-21.16-2.525c-11.368,0-21.588,2.156-30.377,6.41
	c-20.242,9.798-31.14,29.841-34.154,36.113c-3.014-6.272-13.912-26.315-34.154-36.113c-8.788-4.254-19.009-6.41-30.376-6.41
	c-11.969,0-20.79,2.422-21.16,2.525L0,58.314l1.315,3.136c0.453,1.079,11.358,26.555,35.021,38.009
	c8.789,4.254,19.01,6.411,30.378,6.411c0,0,0,0,0.001,0c11.968,0,20.788-2.422,21.157-2.525l1.094-0.305l1.094,0.305
	c0.37,0.104,9.189,2.525,21.158,2.525c11.368,0,21.589-2.157,30.378-6.411c23.663-11.454,34.568-36.93,35.021-38.009l1.315-3.136
	L174.657,57.4z M66.714,99.87c-10.456,0-19.797-1.955-27.764-5.812C22.133,85.918,12.094,69.401,8.434,62.392
	c3.477-0.667,9.23-1.517,16.002-1.517c10.455,0,19.796,1.955,27.763,5.811c16.819,8.142,26.857,24.658,30.517,31.668
	C79.239,99.021,73.486,99.87,66.714,99.87z M138.982,94.059c-7.967,3.856-17.309,5.812-27.764,5.812
	c-6.775,0-12.531-0.85-16.006-1.518c3.647-7.006,13.658-23.504,30.521-31.667c7.967-3.855,17.308-5.811,27.763-5.811
	c6.775,0,12.532,0.851,16.007,1.518C165.856,69.398,155.845,85.896,138.982,94.059z"/>
<g>
	<path fill="#CEB9EF" d="M238.344,94.575h-60.412v-3.857h60.412V94.575z"/>
	<path fill="#CEB9EF" d="M288.85,71.795c0-9.378-7.999-15.757-23.995-19.137c-9.617-2.047-16.306-4.677-20.065-7.891
		c-3.762-3.213-5.642-7.628-5.642-13.246c0-5.666,2.393-10.33,7.177-13.997c4.784-3.665,11.008-5.498,18.673-5.498
		c8.33,0,15.02,1.988,20.065,5.962c5.045,3.976,7.568,9.344,7.568,16.102h-3.926c0-5.188-2.19-9.52-6.569-12.996
		c-4.381-3.475-10.093-5.213-17.139-5.213c-6.761,0-12.116,1.477-16.067,4.428c-3.953,2.953-5.927,6.642-5.927,11.068
		c0,3.476,0.737,6.201,2.213,8.176c1.475,1.976,3.88,3.761,7.212,5.356c3.333,1.596,8.188,3.13,14.567,4.606
		c6.38,1.475,11.426,3.213,15.14,5.213c3.712,1.998,6.402,4.367,8.068,7.105c1.665,2.736,2.499,6.081,2.499,10.031
		c0,6.095-2.499,10.998-7.497,14.711c-5,3.713-11.544,5.569-19.637,5.569c-8.666,0-15.652-1.964-20.959-5.892
		c-5.309-3.928-7.961-8.985-7.961-15.174h3.856c0.38,5.428,2.772,9.652,7.176,12.675c4.403,3.023,10.366,4.534,17.889,4.534
		c6.902,0,12.506-1.606,16.816-4.819C286.694,80.257,288.85,76.366,288.85,71.795z"/>
	<path fill="#A479E2" d="M302.279,50.586c0-7.377,1.416-14.007,4.249-19.887c2.832-5.879,6.83-10.461,11.996-13.746
		c5.165-3.285,11.009-4.927,17.531-4.927c6.474,0,12.281,1.596,17.424,4.785c5.142,3.19,9.15,7.711,12.032,13.567
		c2.88,5.855,4.344,12.45,4.392,19.781v3.427c0,7.427-1.405,14.067-4.213,19.923c-2.81,5.855-6.796,10.426-11.962,13.711
		c-5.165,3.284-11.009,4.927-17.529,4.927c-6.524,0-12.367-1.618-17.532-4.855c-5.166-3.237-9.175-7.771-12.032-13.604
		c-2.856-5.831-4.309-12.39-4.355-19.674V50.586z M306.135,53.586c0,6.427,1.272,12.317,3.819,17.674s6.094,9.533,10.641,12.532
		c4.546,2.998,9.747,4.498,15.604,4.498c8.806,0,15.982-3.307,21.528-9.926c5.546-6.616,8.319-15.138,8.319-25.564v-2.214
		c0-6.331-1.285-12.186-3.855-17.566c-2.571-5.379-6.131-9.58-10.676-12.603c-4.547-3.022-9.701-4.535-15.46-4.535
		c-8.808,0-15.996,3.356-21.565,10.068c-5.57,6.713-8.354,15.164-8.354,25.351V53.586z"/>
	<path fill="#A479E2" d="M434.534,90.718V78.223c-2.284,4.283-5.617,7.676-9.997,10.175s-9.926,3.749-16.639,3.749
		c-8.426,0-14.746-2.463-18.958-7.39c-4.214-4.928-6.367-12.104-6.463-21.53V13.455h3.856v49.915
		c0.094,8.188,1.951,14.389,5.569,18.602c3.617,4.214,8.902,6.319,15.853,6.319c7.379,0,13.377-1.736,17.994-5.212
		c4.618-3.475,7.547-8.569,8.784-15.282V13.455h3.929v77.263H434.534z"/>
	<path fill="#A479E2" d="M493.949,16.311l-4.998-0.429c-6.57,0-12.068,2.129-16.496,6.386c-4.427,4.256-7.332,10.214-8.712,17.87
		v50.58h-3.855V13.455h3.855v16.067c2.095-5.38,5.236-9.64,9.426-12.782c4.189-3.142,9.45-4.713,15.782-4.713
		c2.237,0,4.045,0.266,5.427,0.799L493.949,16.311z"/>
	<path fill="#8454D1" d="M527.843,88.29c6.997,0,12.77-1.855,17.316-5.569c4.545-3.713,7.033-8.854,7.462-15.425h3.855
		c-0.381,7.476-3.262,13.485-8.64,18.031c-5.38,4.547-12.044,6.819-19.994,6.819c-9.665,0-17.342-3.499-23.029-10.496
		c-5.689-6.999-8.534-16.496-8.534-28.493v-2.571c0-11.711,2.845-21.065,8.534-28.064c5.688-6.997,13.317-10.496,22.886-10.496
		c8.188,0,14.948,2.452,20.28,7.354c5.331,4.904,8.164,11.426,8.497,19.566h-3.855c-0.333-6.949-2.774-12.531-7.319-16.745
		c-4.547-4.213-10.415-6.32-17.603-6.32c-8.616,0-15.365,3.107-20.244,9.319c-4.88,6.213-7.319,14.843-7.319,25.886v2.5
		c0,10.808,2.463,19.292,7.391,25.457S519.226,88.29,527.843,88.29z"/>
	<path fill="#8454D1" d="M600.682,92.146c-6.237,0-11.961-1.678-17.174-5.034c-5.214-3.356-9.295-7.963-12.247-13.816
		c-2.953-5.856-4.428-12.354-4.428-19.496v-3.213c0-7.14,1.429-13.685,4.286-19.638c2.855-5.95,6.783-10.591,11.781-13.924
		c4.998-3.332,10.449-4.999,16.354-4.999c8.615,0,15.661,3.07,21.137,9.212c5.474,6.14,8.212,14.21,8.212,24.207v4.071H570.69v4.205
		c0,6.273,1.321,12.083,3.963,17.429c2.643,5.346,6.284,9.538,10.927,12.58c4.641,3.042,9.676,4.561,15.103,4.561
		c5.188,0,9.604-0.861,13.246-2.588c3.642-1.726,6.866-4.386,9.676-7.979l2.713,1.928C620.557,87.981,612.011,92.146,600.682,92.146
		z M599.254,15.882c-7.523,0-13.902,2.798-19.139,8.391c-5.237,5.594-8.308,12.724-9.211,21.386h53.842v-0.927
		c0-5.237-1.106-10.104-3.32-14.603c-2.215-4.499-5.262-7.998-9.141-10.498C608.405,17.132,604.062,15.882,599.254,15.882z"/>
</g>
</svg>
